<svg xmlns="http://www.w3.org/2000/svg" viewBox="0 0 463 520" fill="none" role="img" aria-label="Dot-matrix map of India with GeoGrid scan markers on major cities">
  <style>
    .ring{transform-origin:center;transform-box:fill-box;animation:ping 3.4s cubic-bezier(0,0,.2,1) infinite}
    @keyframes ping{0%{transform:scale(.35);opacity:.9}75%,100%{transform:scale(2.6);opacity:0}}
    .lbl{font:600 9px 'IBM Plex Mono',monospace;letter-spacing:.08em;fill:rgba(232,236,244,0.55)}
    @media(prefers-reduced-motion:reduce){.ring{animation:none;opacity:.3}}
  </style>
  <path d="M-0.7 232.5L6.6 239.4L12.3 255.5L32 276.3L69.9 296.4L82.7 362.3L97 388.3L96.3 394L123 452.9L131.4 480.9L143.2 494.3L150.6 496.7L160.3 490.7L167.7 479.1L180.5 479.4L180 469.6L174.7 469L179.9 458.8L186.6 459.4L189.7 456.7L188.4 432.2L194.8 417.7L197.2 404.9L195 370.1L206.1 366.2L208.9 362.2L226.9 352.1L262.3 314.3L290.7 294.8L302.1 281.5L332.9 268.2L327.4 240.4L329.7 236.9L325.5 236.3L326.6 232.1L322.8 229.5L325.7 219.3L314.2 212.3L316.2 207.7L319.5 208.8L321.3 205.5L321.3 204.2L321 203.3L321 203.2L321 203.1L329.9 202.2L326.8 197.8L322.6 198L315.9 193.1L316.9 187.2L322.3 183.6L319.3 181.5L320.3 179.1L325.8 183.8L324.6 185.3L330.6 185.6L328.3 182.8L331.2 183L332.2 187.4L335.3 189.5L338.9 190.2L340.5 185.7L343.7 190.6L342.8 201.6L352.4 204.2L377.9 203.5L383.6 206.1L384.5 209L380.6 208.3L379.5 216.5L375.7 217.9L375.4 221.3L373 219.5L370.4 222.4L367.1 221.8L363.7 230.2L366.7 238.8L367.7 235.7L370.9 241.6L374.3 239L373.1 235.4L376.4 232.3L376.1 228.1L381.3 228.2L386.4 257.8L387.9 254.8L391.1 258.5L395.8 253L394.6 239.8L398.7 238.1L397.8 222.2L410.8 226.2L419.9 206.6L417.4 203L418.3 199.9L426.9 188.5L426.4 179.3L443.3 168L450.8 166.5L457.6 171.2L453.8 162.4L461.6 155.6L461.1 152.4L454.3 149.8L443.9 134.7L439.2 132.5L428.2 137.7L418.6 133.7L413 136.3L414.1 138.5L408.6 142.4L396.6 146.5L391.6 152.4L387.6 153.3L388.4 156.2L384.2 159.3L380.8 157.7L375.7 160.6L374.2 159.4L370.3 158.7L371.4 164.6L377.2 164.6L378.8 167.9L377.8 175.3L356.5 176.7L351.4 174.4L343.3 177.8L331.9 176L325.8 170.4L328.5 167.9L326.1 163.2L328 158.3L324 153.7L315.9 157.2L313.9 170.7L317.1 177L314.2 183.6L312.3 181.5L303.7 183.8L299.5 179.8L294.2 182.6L287.9 179.2L280.3 180.1L276.8 174.9L270.3 176.9L261.4 172L261 167.1L253.6 164L249 166.8L241.7 164.6L240.6 167.2L231.4 164.3L231 160.5L218.1 158.3L209.2 153.6L207.5 149.7L189.5 141.6L193.1 135.4L194.2 126.2L204.6 117.8L191.9 112.1L192.2 109L186.4 105.5L179.5 104.6L174.3 97.3L169.3 99.7L169.3 88.2L163.2 78.9L168.7 76.3L172.3 82.4L179.2 79.3L180 76.1L168 60.3L167.4 52.8L173.5 48.7L161.3 43.5L157.1 33.2L159.2 28.9L148.3 29.4L138.4 25.9L137.4 28.1L143.2 36.2L138.1 38.1L136.5 41.6L126.2 42.6L122.3 45.5L101.3 41L93.5 42.8L90.3 48.4L94.1 49.6L93.1 53.8L98.7 55.3L93.6 58.9L97.3 63L94.3 67.4L102.3 75.5L105.3 73.8L105 79.8L111.5 80L115.8 84.3L103.8 89.9L101.9 92.9L104.5 97.8L102.2 102.8L105.2 103.8L93.2 113.7L93.8 118.6L84.8 122.9L77.7 138.4L68.4 143.4L61.2 156.5L45.1 160.8L40.7 155.7L37.3 155.6L24.9 169.7L23.7 177.1L34.1 180.4L33 190.7L35.6 194.6L41.8 194.8L41.9 199.9L48.6 211.9L47.1 216.1L49 216.8L42.6 219.9L40.2 216.5L31.8 220.7L12.7 218.3L11.8 224.1L5.6 223.8L-0.7 232.5Z" stroke="rgba(126,162,255,0.28)" stroke-width="1"/>
  <g fill="rgba(91,138,255,0.30)">
    <circle cx="144" cy="31" r="1.7"/><circle cx="156" cy="31" r="1.7"/><circle cx="94" cy="44" r="1.7"/><circle cx="106" cy="44" r="1.7"/><circle cx="131" cy="44" r="1.7"/><circle cx="144" cy="44" r="1.7"/><circle cx="156" cy="44" r="1.7"/><circle cx="106" cy="56" r="1.7"/><circle cx="119" cy="56" r="1.7"/><circle cx="131" cy="56" r="1.7"/><circle cx="144" cy="56" r="1.7"/><circle cx="156" cy="56" r="1.7"/><circle cx="106" cy="69" r="1.7"/><circle cx="119" cy="69" r="1.7"/><circle cx="131" cy="69" r="1.7"/><circle cx="144" cy="69" r="1.7"/><circle cx="156" cy="69" r="1.7"/><circle cx="169" cy="69" r="1.7"/><circle cx="119" cy="81" r="1.7"/><circle cx="131" cy="81" r="1.7"/><circle cx="144" cy="81" r="1.7"/><circle cx="156" cy="81" r="1.7"/><circle cx="106" cy="94" r="1.7"/><circle cx="119" cy="94" r="1.7"/><circle cx="131" cy="94" r="1.7"/><circle cx="144" cy="94" r="1.7"/><circle cx="156" cy="94" r="1.7"/><circle cx="169" cy="94" r="1.7"/><circle cx="106" cy="106" r="1.7"/><circle cx="119" cy="106" r="1.7"/><circle cx="131" cy="106" r="1.7"/><circle cx="144" cy="106" r="1.7"/><circle cx="156" cy="106" r="1.7"/><circle cx="169" cy="106" r="1.7"/><circle cx="181" cy="106" r="1.7"/><circle cx="94" cy="119" r="1.7"/><circle cx="106" cy="119" r="1.7"/><circle cx="119" cy="119" r="1.7"/><circle cx="131" cy="119" r="1.7"/><circle cx="144" cy="119" r="1.7"/><circle cx="156" cy="119" r="1.7"/><circle cx="169" cy="119" r="1.7"/><circle cx="181" cy="119" r="1.7"/><circle cx="194" cy="119" r="1.7"/><circle cx="81" cy="131" r="1.7"/><circle cx="94" cy="131" r="1.7"/><circle cx="106" cy="131" r="1.7"/><circle cx="119" cy="131" r="1.7"/><circle cx="131" cy="131" r="1.7"/><circle cx="144" cy="131" r="1.7"/><circle cx="156" cy="131" r="1.7"/><circle cx="169" cy="131" r="1.7"/><circle cx="181" cy="131" r="1.7"/><circle cx="69" cy="144" r="1.7"/><circle cx="81" cy="144" r="1.7"/><circle cx="94" cy="144" r="1.7"/><circle cx="106" cy="144" r="1.7"/><circle cx="119" cy="144" r="1.7"/><circle cx="131" cy="144" r="1.7"/><circle cx="144" cy="144" r="1.7"/><circle cx="156" cy="144" r="1.7"/><circle cx="169" cy="144" r="1.7"/><circle cx="181" cy="144" r="1.7"/><circle cx="194" cy="144" r="1.7"/><circle cx="406" cy="144" r="1.7"/><circle cx="419" cy="144" r="1.7"/><circle cx="431" cy="144" r="1.7"/><circle cx="444" cy="144" r="1.7"/><circle cx="69" cy="156" r="1.7"/><circle cx="81" cy="156" r="1.7"/><circle cx="94" cy="156" r="1.7"/><circle cx="106" cy="156" r="1.7"/><circle cx="119" cy="156" r="1.7"/><circle cx="131" cy="156" r="1.7"/><circle cx="144" cy="156" r="1.7"/><circle cx="156" cy="156" r="1.7"/><circle cx="169" cy="156" r="1.7"/><circle cx="181" cy="156" r="1.7"/><circle cx="194" cy="156" r="1.7"/><circle cx="206" cy="156" r="1.7"/><circle cx="319" cy="156" r="1.7"/><circle cx="394" cy="156" r="1.7"/><circle cx="406" cy="156" r="1.7"/><circle cx="419" cy="156" r="1.7"/><circle cx="431" cy="156" r="1.7"/><circle cx="444" cy="156" r="1.7"/><circle cx="456" cy="156" r="1.7"/><circle cx="31" cy="169" r="1.7"/><circle cx="44" cy="169" r="1.7"/><circle cx="56" cy="169" r="1.7"/><circle cx="69" cy="169" r="1.7"/><circle cx="81" cy="169" r="1.7"/><circle cx="94" cy="169" r="1.7"/><circle cx="106" cy="169" r="1.7"/><circle cx="119" cy="169" r="1.7"/><circle cx="131" cy="169" r="1.7"/><circle cx="144" cy="169" r="1.7"/><circle cx="156" cy="169" r="1.7"/><circle cx="169" cy="169" r="1.7"/><circle cx="181" cy="169" r="1.7"/><circle cx="194" cy="169" r="1.7"/><circle cx="206" cy="169" r="1.7"/><circle cx="219" cy="169" r="1.7"/><circle cx="231" cy="169" r="1.7"/><circle cx="244" cy="169" r="1.7"/><circle cx="256" cy="169" r="1.7"/><circle cx="319" cy="169" r="1.7"/><circle cx="381" cy="169" r="1.7"/><circle cx="394" cy="169" r="1.7"/><circle cx="406" cy="169" r="1.7"/><circle cx="419" cy="169" r="1.7"/><circle cx="431" cy="169" r="1.7"/><circle cx="456" cy="169" r="1.7"/><circle cx="44" cy="181" r="1.7"/><circle cx="56" cy="181" r="1.7"/><circle cx="69" cy="181" r="1.7"/><circle cx="81" cy="181" r="1.7"/><circle cx="94" cy="181" r="1.7"/><circle cx="106" cy="181" r="1.7"/><circle cx="119" cy="181" r="1.7"/><circle cx="131" cy="181" r="1.7"/><circle cx="144" cy="181" r="1.7"/><circle cx="156" cy="181" r="1.7"/><circle cx="169" cy="181" r="1.7"/><circle cx="181" cy="181" r="1.7"/><circle cx="194" cy="181" r="1.7"/><circle cx="206" cy="181" r="1.7"/><circle cx="219" cy="181" r="1.7"/><circle cx="231" cy="181" r="1.7"/><circle cx="244" cy="181" r="1.7"/><circle cx="256" cy="181" r="1.7"/><circle cx="269" cy="181" r="1.7"/><circle cx="281" cy="181" r="1.7"/><circle cx="319" cy="181" r="1.7"/><circle cx="331" cy="181" r="1.7"/><circle cx="344" cy="181" r="1.7"/><circle cx="356" cy="181" r="1.7"/><circle cx="369" cy="181" r="1.7"/><circle cx="381" cy="181" r="1.7"/><circle cx="394" cy="181" r="1.7"/><circle cx="406" cy="181" r="1.7"/><circle cx="419" cy="181" r="1.7"/><circle cx="44" cy="194" r="1.7"/><circle cx="56" cy="194" r="1.7"/><circle cx="69" cy="194" r="1.7"/><circle cx="81" cy="194" r="1.7"/><circle cx="94" cy="194" r="1.7"/><circle cx="106" cy="194" r="1.7"/><circle cx="119" cy="194" r="1.7"/><circle cx="131" cy="194" r="1.7"/><circle cx="144" cy="194" r="1.7"/><circle cx="156" cy="194" r="1.7"/><circle cx="169" cy="194" r="1.7"/><circle cx="181" cy="194" r="1.7"/><circle cx="194" cy="194" r="1.7"/><circle cx="206" cy="194" r="1.7"/><circle cx="219" cy="194" r="1.7"/><circle cx="231" cy="194" r="1.7"/><circle cx="244" cy="194" r="1.7"/><circle cx="256" cy="194" r="1.7"/><circle cx="269" cy="194" r="1.7"/><circle cx="281" cy="194" r="1.7"/><circle cx="294" cy="194" r="1.7"/><circle cx="306" cy="194" r="1.7"/><circle cx="344" cy="194" r="1.7"/><circle cx="356" cy="194" r="1.7"/><circle cx="369" cy="194" r="1.7"/><circle cx="381" cy="194" r="1.7"/><circle cx="394" cy="194" r="1.7"/><circle cx="406" cy="194" r="1.7"/><circle cx="419" cy="194" r="1.7"/><circle cx="56" cy="206" r="1.7"/><circle cx="69" cy="206" r="1.7"/><circle cx="81" cy="206" r="1.7"/><circle cx="94" cy="206" r="1.7"/><circle cx="106" cy="206" r="1.7"/><circle cx="119" cy="206" r="1.7"/><circle cx="131" cy="206" r="1.7"/><circle cx="144" cy="206" r="1.7"/><circle cx="156" cy="206" r="1.7"/><circle cx="169" cy="206" r="1.7"/><circle cx="181" cy="206" r="1.7"/><circle cx="194" cy="206" r="1.7"/><circle cx="206" cy="206" r="1.7"/><circle cx="219" cy="206" r="1.7"/><circle cx="231" cy="206" r="1.7"/><circle cx="244" cy="206" r="1.7"/><circle cx="256" cy="206" r="1.7"/><circle cx="269" cy="206" r="1.7"/><circle cx="281" cy="206" r="1.7"/><circle cx="294" cy="206" r="1.7"/><circle cx="306" cy="206" r="1.7"/><circle cx="319" cy="206" r="1.7"/><circle cx="394" cy="206" r="1.7"/><circle cx="406" cy="206" r="1.7"/><circle cx="419" cy="206" r="1.7"/><circle cx="56" cy="219" r="1.7"/><circle cx="69" cy="219" r="1.7"/><circle cx="81" cy="219" r="1.7"/><circle cx="94" cy="219" r="1.7"/><circle cx="106" cy="219" r="1.7"/><circle cx="119" cy="219" r="1.7"/><circle cx="131" cy="219" r="1.7"/><circle cx="144" cy="219" r="1.7"/><circle cx="156" cy="219" r="1.7"/><circle cx="169" cy="219" r="1.7"/><circle cx="181" cy="219" r="1.7"/><circle cx="194" cy="219" r="1.7"/><circle cx="206" cy="219" r="1.7"/><circle cx="219" cy="219" r="1.7"/><circle cx="231" cy="219" r="1.7"/><circle cx="244" cy="219" r="1.7"/><circle cx="256" cy="219" r="1.7"/><circle cx="269" cy="219" r="1.7"/><circle cx="281" cy="219" r="1.7"/><circle cx="294" cy="219" r="1.7"/><circle cx="306" cy="219" r="1.7"/><circle cx="319" cy="219" r="1.7"/><circle cx="381" cy="219" r="1.7"/><circle cx="394" cy="219" r="1.7"/><circle cx="406" cy="219" r="1.7"/><circle cx="6" cy="231" r="1.7"/><circle cx="19" cy="231" r="1.7"/><circle cx="31" cy="231" r="1.7"/><circle cx="44" cy="231" r="1.7"/><circle cx="56" cy="231" r="1.7"/><circle cx="69" cy="231" r="1.7"/><circle cx="81" cy="231" r="1.7"/><circle cx="94" cy="231" r="1.7"/><circle cx="106" cy="231" r="1.7"/><circle cx="119" cy="231" r="1.7"/><circle cx="131" cy="231" r="1.7"/><circle cx="144" cy="231" r="1.7"/><circle cx="156" cy="231" r="1.7"/><circle cx="169" cy="231" r="1.7"/><circle cx="181" cy="231" r="1.7"/><circle cx="194" cy="231" r="1.7"/><circle cx="206" cy="231" r="1.7"/><circle cx="219" cy="231" r="1.7"/><circle cx="231" cy="231" r="1.7"/><circle cx="244" cy="231" r="1.7"/><circle cx="256" cy="231" r="1.7"/><circle cx="269" cy="231" r="1.7"/><circle cx="281" cy="231" r="1.7"/><circle cx="294" cy="231" r="1.7"/><circle cx="306" cy="231" r="1.7"/><circle cx="319" cy="231" r="1.7"/><circle cx="369" cy="231" r="1.7"/><circle cx="394" cy="231" r="1.7"/><circle cx="19" cy="244" r="1.7"/><circle cx="31" cy="244" r="1.7"/><circle cx="44" cy="244" r="1.7"/><circle cx="56" cy="244" r="1.7"/><circle cx="69" cy="244" r="1.7"/><circle cx="81" cy="244" r="1.7"/><circle cx="94" cy="244" r="1.7"/><circle cx="106" cy="244" r="1.7"/><circle cx="119" cy="244" r="1.7"/><circle cx="131" cy="244" r="1.7"/><circle cx="144" cy="244" r="1.7"/><circle cx="156" cy="244" r="1.7"/><circle cx="169" cy="244" r="1.7"/><circle cx="181" cy="244" r="1.7"/><circle cx="194" cy="244" r="1.7"/><circle cx="206" cy="244" r="1.7"/><circle cx="219" cy="244" r="1.7"/><circle cx="231" cy="244" r="1.7"/><circle cx="244" cy="244" r="1.7"/><circle cx="256" cy="244" r="1.7"/><circle cx="269" cy="244" r="1.7"/><circle cx="281" cy="244" r="1.7"/><circle cx="294" cy="244" r="1.7"/><circle cx="306" cy="244" r="1.7"/><circle cx="319" cy="244" r="1.7"/><circle cx="394" cy="244" r="1.7"/><circle cx="19" cy="256" r="1.7"/><circle cx="31" cy="256" r="1.7"/><circle cx="44" cy="256" r="1.7"/><circle cx="56" cy="256" r="1.7"/><circle cx="69" cy="256" r="1.7"/><circle cx="81" cy="256" r="1.7"/><circle cx="94" cy="256" r="1.7"/><circle cx="106" cy="256" r="1.7"/><circle cx="119" cy="256" r="1.7"/><circle cx="131" cy="256" r="1.7"/><circle cx="144" cy="256" r="1.7"/><circle cx="156" cy="256" r="1.7"/><circle cx="169" cy="256" r="1.7"/><circle cx="181" cy="256" r="1.7"/><circle cx="194" cy="256" r="1.7"/><circle cx="206" cy="256" r="1.7"/><circle cx="219" cy="256" r="1.7"/><circle cx="231" cy="256" r="1.7"/><circle cx="244" cy="256" r="1.7"/><circle cx="256" cy="256" r="1.7"/><circle cx="269" cy="256" r="1.7"/><circle cx="281" cy="256" r="1.7"/><circle cx="294" cy="256" r="1.7"/><circle cx="306" cy="256" r="1.7"/><circle cx="319" cy="256" r="1.7"/><circle cx="31" cy="269" r="1.7"/><circle cx="44" cy="269" r="1.7"/><circle cx="56" cy="269" r="1.7"/><circle cx="69" cy="269" r="1.7"/><circle cx="81" cy="269" r="1.7"/><circle cx="94" cy="269" r="1.7"/><circle cx="106" cy="269" r="1.7"/><circle cx="119" cy="269" r="1.7"/><circle cx="131" cy="269" r="1.7"/><circle cx="144" cy="269" r="1.7"/><circle cx="156" cy="269" r="1.7"/><circle cx="169" cy="269" r="1.7"/><circle cx="181" cy="269" r="1.7"/><circle cx="194" cy="269" r="1.7"/><circle cx="206" cy="269" r="1.7"/><circle cx="219" cy="269" r="1.7"/><circle cx="231" cy="269" r="1.7"/><circle cx="244" cy="269" r="1.7"/><circle cx="256" cy="269" r="1.7"/><circle cx="269" cy="269" r="1.7"/><circle cx="281" cy="269" r="1.7"/><circle cx="294" cy="269" r="1.7"/><circle cx="306" cy="269" r="1.7"/><circle cx="319" cy="269" r="1.7"/><circle cx="331" cy="269" r="1.7"/><circle cx="44" cy="281" r="1.7"/><circle cx="56" cy="281" r="1.7"/><circle cx="69" cy="281" r="1.7"/><circle cx="81" cy="281" r="1.7"/><circle cx="94" cy="281" r="1.7"/><circle cx="106" cy="281" r="1.7"/><circle cx="119" cy="281" r="1.7"/><circle cx="131" cy="281" r="1.7"/><circle cx="144" cy="281" r="1.7"/><circle cx="156" cy="281" r="1.7"/><circle cx="169" cy="281" r="1.7"/><circle cx="181" cy="281" r="1.7"/><circle cx="194" cy="281" r="1.7"/><circle cx="206" cy="281" r="1.7"/><circle cx="219" cy="281" r="1.7"/><circle cx="231" cy="281" r="1.7"/><circle cx="244" cy="281" r="1.7"/><circle cx="256" cy="281" r="1.7"/><circle cx="269" cy="281" r="1.7"/><circle cx="281" cy="281" r="1.7"/><circle cx="294" cy="281" r="1.7"/><circle cx="69" cy="294" r="1.7"/><circle cx="81" cy="294" r="1.7"/><circle cx="94" cy="294" r="1.7"/><circle cx="106" cy="294" r="1.7"/><circle cx="119" cy="294" r="1.7"/><circle cx="131" cy="294" r="1.7"/><circle cx="144" cy="294" r="1.7"/><circle cx="156" cy="294" r="1.7"/><circle cx="169" cy="294" r="1.7"/><circle cx="181" cy="294" r="1.7"/><circle cx="194" cy="294" r="1.7"/><circle cx="206" cy="294" r="1.7"/><circle cx="219" cy="294" r="1.7"/><circle cx="231" cy="294" r="1.7"/><circle cx="244" cy="294" r="1.7"/><circle cx="256" cy="294" r="1.7"/><circle cx="269" cy="294" r="1.7"/><circle cx="281" cy="294" r="1.7"/><circle cx="81" cy="306" r="1.7"/><circle cx="94" cy="306" r="1.7"/><circle cx="106" cy="306" r="1.7"/><circle cx="119" cy="306" r="1.7"/><circle cx="131" cy="306" r="1.7"/><circle cx="144" cy="306" r="1.7"/><circle cx="156" cy="306" r="1.7"/><circle cx="169" cy="306" r="1.7"/><circle cx="181" cy="306" r="1.7"/><circle cx="194" cy="306" r="1.7"/><circle cx="206" cy="306" r="1.7"/><circle cx="219" cy="306" r="1.7"/><circle cx="231" cy="306" r="1.7"/><circle cx="244" cy="306" r="1.7"/><circle cx="256" cy="306" r="1.7"/><circle cx="269" cy="306" r="1.7"/><circle cx="81" cy="319" r="1.7"/><circle cx="94" cy="319" r="1.7"/><circle cx="106" cy="319" r="1.7"/><circle cx="119" cy="319" r="1.7"/><circle cx="131" cy="319" r="1.7"/><circle cx="144" cy="319" r="1.7"/><circle cx="156" cy="319" r="1.7"/><circle cx="169" cy="319" r="1.7"/><circle cx="181" cy="319" r="1.7"/><circle cx="194" cy="319" r="1.7"/><circle cx="206" cy="319" r="1.7"/><circle cx="219" cy="319" r="1.7"/><circle cx="231" cy="319" r="1.7"/><circle cx="244" cy="319" r="1.7"/><circle cx="256" cy="319" r="1.7"/><circle cx="81" cy="331" r="1.7"/><circle cx="94" cy="331" r="1.7"/><circle cx="106" cy="331" r="1.7"/><circle cx="119" cy="331" r="1.7"/><circle cx="131" cy="331" r="1.7"/><circle cx="144" cy="331" r="1.7"/><circle cx="156" cy="331" r="1.7"/><circle cx="169" cy="331" r="1.7"/><circle cx="181" cy="331" r="1.7"/><circle cx="194" cy="331" r="1.7"/><circle cx="206" cy="331" r="1.7"/><circle cx="219" cy="331" r="1.7"/><circle cx="231" cy="331" r="1.7"/><circle cx="244" cy="331" r="1.7"/><circle cx="81" cy="344" r="1.7"/><circle cx="94" cy="344" r="1.7"/><circle cx="106" cy="344" r="1.7"/><circle cx="119" cy="344" r="1.7"/><circle cx="131" cy="344" r="1.7"/><circle cx="144" cy="344" r="1.7"/><circle cx="156" cy="344" r="1.7"/><circle cx="169" cy="344" r="1.7"/><circle cx="181" cy="344" r="1.7"/><circle cx="194" cy="344" r="1.7"/><circle cx="206" cy="344" r="1.7"/><circle cx="219" cy="344" r="1.7"/><circle cx="231" cy="344" r="1.7"/><circle cx="94" cy="356" r="1.7"/><circle cx="106" cy="356" r="1.7"/><circle cx="119" cy="356" r="1.7"/><circle cx="131" cy="356" r="1.7"/><circle cx="144" cy="356" r="1.7"/><circle cx="156" cy="356" r="1.7"/><circle cx="169" cy="356" r="1.7"/><circle cx="181" cy="356" r="1.7"/><circle cx="194" cy="356" r="1.7"/><circle cx="206" cy="356" r="1.7"/><circle cx="219" cy="356" r="1.7"/><circle cx="94" cy="369" r="1.7"/><circle cx="106" cy="369" r="1.7"/><circle cx="119" cy="369" r="1.7"/><circle cx="131" cy="369" r="1.7"/><circle cx="144" cy="369" r="1.7"/><circle cx="156" cy="369" r="1.7"/><circle cx="169" cy="369" r="1.7"/><circle cx="181" cy="369" r="1.7"/><circle cx="194" cy="369" r="1.7"/><circle cx="94" cy="381" r="1.7"/><circle cx="106" cy="381" r="1.7"/><circle cx="119" cy="381" r="1.7"/><circle cx="131" cy="381" r="1.7"/><circle cx="144" cy="381" r="1.7"/><circle cx="156" cy="381" r="1.7"/><circle cx="169" cy="381" r="1.7"/><circle cx="181" cy="381" r="1.7"/><circle cx="194" cy="381" r="1.7"/><circle cx="106" cy="394" r="1.7"/><circle cx="119" cy="394" r="1.7"/><circle cx="131" cy="394" r="1.7"/><circle cx="144" cy="394" r="1.7"/><circle cx="156" cy="394" r="1.7"/><circle cx="169" cy="394" r="1.7"/><circle cx="181" cy="394" r="1.7"/><circle cx="194" cy="394" r="1.7"/><circle cx="106" cy="406" r="1.7"/><circle cx="119" cy="406" r="1.7"/><circle cx="131" cy="406" r="1.7"/><circle cx="144" cy="406" r="1.7"/><circle cx="156" cy="406" r="1.7"/><circle cx="169" cy="406" r="1.7"/><circle cx="181" cy="406" r="1.7"/><circle cx="194" cy="406" r="1.7"/><circle cx="394" cy="406" r="1.7"/><circle cx="119" cy="419" r="1.7"/><circle cx="131" cy="419" r="1.7"/><circle cx="144" cy="419" r="1.7"/><circle cx="156" cy="419" r="1.7"/><circle cx="169" cy="419" r="1.7"/><circle cx="181" cy="419" r="1.7"/><circle cx="194" cy="419" r="1.7"/><circle cx="394" cy="419" r="1.7"/><circle cx="406" cy="419" r="1.7"/><circle cx="56" cy="431" r="1.7"/><circle cx="69" cy="431" r="1.7"/><circle cx="119" cy="431" r="1.7"/><circle cx="131" cy="431" r="1.7"/><circle cx="144" cy="431" r="1.7"/><circle cx="156" cy="431" r="1.7"/><circle cx="169" cy="431" r="1.7"/><circle cx="181" cy="431" r="1.7"/><circle cx="381" cy="431" r="1.7"/><circle cx="394" cy="431" r="1.7"/><circle cx="69" cy="444" r="1.7"/><circle cx="81" cy="444" r="1.7"/><circle cx="131" cy="444" r="1.7"/><circle cx="144" cy="444" r="1.7"/><circle cx="156" cy="444" r="1.7"/><circle cx="169" cy="444" r="1.7"/><circle cx="181" cy="444" r="1.7"/><circle cx="381" cy="444" r="1.7"/><circle cx="69" cy="456" r="1.7"/><circle cx="81" cy="456" r="1.7"/><circle cx="131" cy="456" r="1.7"/><circle cx="144" cy="456" r="1.7"/><circle cx="156" cy="456" r="1.7"/><circle cx="169" cy="456" r="1.7"/><circle cx="181" cy="456" r="1.7"/><circle cx="381" cy="456" r="1.7"/><circle cx="69" cy="469" r="1.7"/><circle cx="81" cy="469" r="1.7"/><circle cx="131" cy="469" r="1.7"/><circle cx="144" cy="469" r="1.7"/><circle cx="156" cy="469" r="1.7"/><circle cx="169" cy="469" r="1.7"/><circle cx="81" cy="481" r="1.7"/><circle cx="144" cy="481" r="1.7"/><circle cx="156" cy="481" r="1.7"/><circle cx="394" cy="481" r="1.7"/><circle cx="144" cy="494" r="1.7"/><circle cx="394" cy="494" r="1.7"/><circle cx="406" cy="506" r="1.7"/><circle cx="406" cy="519" r="1.7"/>
  </g>
  <g><circle class="ring" style="animation-delay:0s" cx="144.6" cy="145.5" r="6" fill="none" stroke="rgba(91,138,255,0.65)" stroke-width="1.5"/><circle cx="144.6" cy="145.5" r="3" fill="#5B8AFF"/><circle cx="144.6" cy="145.5" r="1.3" fill="#DCE6FF"/><text x="152.6" y="148.5" class="lbl">DELHI</text></g>
  <g><rect x="59.599999999999994" y="289.9" width="34" height="34" fill="rgba(255,133,187,0.06)" stroke="#FF85BB" stroke-width="1.2" stroke-dasharray="4 3"/><path d="M76.6 289.9V323.9M59.599999999999994 306.9H93.6" stroke="rgba(255,133,187,0.45)" stroke-width="0.7"/><rect x="76.6" y="289.9" width="8.5" height="8.5" stroke="rgba(255,176,32,0.8)" stroke-width="0.7" fill="rgba(255,176,32,0.15)"/><circle class="ring" style="animation-delay:-1.1s" cx="76.6" cy="306.9" r="6" fill="none" stroke="rgba(91,138,255,0.65)" stroke-width="1.5"/><circle cx="76.6" cy="306.9" r="3" fill="#5B8AFF"/><circle cx="76.6" cy="306.9" r="1.3" fill="#DCE6FF"/><text x="18.599999999999994" y="309.9" class="lbl">MUMBAI</text></g>
  <g><circle class="ring" style="animation-delay:-2.2s" cx="150.6" cy="410.4" r="6" fill="none" stroke="rgba(91,138,255,0.65)" stroke-width="1.5"/><circle cx="150.6" cy="410.4" r="3" fill="#5B8AFF"/><circle cx="150.6" cy="410.4" r="1.3" fill="#DCE6FF"/><text x="158.6" y="420.4" class="lbl">BENGALURU</text></g>
  <g><circle class="ring" style="animation-delay:-0.6s" cx="319.7" cy="247.8" r="6" fill="none" stroke="rgba(91,138,255,0.65)" stroke-width="1.5"/><circle cx="319.7" cy="247.8" r="3" fill="#5B8AFF"/><circle cx="319.7" cy="247.8" r="1.3" fill="#DCE6FF"/><text x="327.7" y="250.8" class="lbl">KOLKATA</text></g>
  <g><circle class="ring" style="animation-delay:-1.7s" cx="164.6" cy="335.7" r="6" fill="none" stroke="rgba(91,138,255,0.65)" stroke-width="1.5"/><circle cx="164.6" cy="335.7" r="3" fill="#5B8AFF"/><circle cx="164.6" cy="335.7" r="1.3" fill="#DCE6FF"/><text x="172.6" y="338.7" class="lbl">HYDERABAD</text></g>
  <g><circle class="ring" style="animation-delay:-2.8s" cx="192.7" cy="408.5" r="6" fill="none" stroke="rgba(91,138,255,0.65)" stroke-width="1.5"/><circle cx="192.7" cy="408.5" r="3" fill="#5B8AFF"/><circle cx="192.7" cy="408.5" r="1.3" fill="#DCE6FF"/><text x="200.7" y="411.5" class="lbl">CHENNAI</text></g>
</svg>
